<svg viewBox="0 0 95 102" fill="none" xmlns="http://www.w3.org/2000/svg">
  <path d="M31.254 42.33c.318-.11.62-.263.897-.452 6.726-5.468 16.595-5.29 24.643.907a56.608 56.608 0 0 1 7.958 7.582 82.063 82.063 0 0 0 12.712 11.55 50.059 50.059 0 0 0 11.953 6.912c1.081.414 2.236.663 3.35.997.38.113.737.265 1.106.398l.06.317a9.247 9.247 0 0 1-1.356.626 30.64 30.64 0 0 1-19.403-.236A50.11 50.11 0 0 1 52.41 57.254a45.549 45.549 0 0 0-11.394-9.46 13.88 13.88 0 0 0-10.466-1.73 9.845 9.845 0 0 0-1.048.347c-1.074.435-1.25.867-.755 1.998a50.837 50.837 0 0 0 5.987 10.13c1.53 2.048 3.128 4.054 4.683 6.087.197.299.37.613.515.94l-.238.259c-.433-.27-.885-.515-1.303-.818a25 25 0 0 0-6.767-3.813c-2.892-.968-5.086-.317-6.903 2.025-.565.75-1.012 1.593-1.515 2.387-.169.274-.35.53-.701 1.04a10.984 10.984 0 0 1-.507-1.468c-.74-4.271-1.505-8.526-2.148-12.775a56.997 56.997 0 0 0-6.089-17.57c-1.392-2.67-2.927-5.248-4.386-7.876a7.146 7.146 0 0 1-.377-1.076l.248-.466c.909.31 1.797.681 2.71.942a10.76 10.76 0 0 0 10.384-2.012 6.801 6.801 0 0 1 1.56-.733c-.008.563-.04 1.128-.018 1.683a59.423 59.423 0 0 0 .325 7.12c.48 3.12 1.358 6.248 2.084 9.343.073.32.39.854.537.843a1.31 1.31 0 0 0 .91-.58c2.992-4.276 4.313-9.017 2.684-14.405a17.53 17.53 0 0 0-.444-1.72c-.452-1.065-.029-1.666.79-2.223A51.282 51.282 0 0 0 44 11.443a5.73 5.73 0 0 1 1.339-1.007c.139.545.224 1.103.253 1.665-.103 2.519-.206 5.039-.413 7.542-.383 4.985-3.036 8.75-6.144 12.21-2.567 2.82-5.399 5.43-7.367 8.78-.287.48-.553.993-.796 1.468l.383.23z" fill="#B1310D"/>
</svg>
